<svg id="visual" viewBox="0 0 960 540" width="960" height="540" xmlns="http://www.w3.org/2000/svg" xmlns:xlink="http://www.w3.org/1999/xlink" version="1.1"><rect x="0" y="0" width="960" height="540" fill="#001220"></rect><defs><linearGradient id="grad1_0" x1="43.8%" y1="0%" x2="100%" y2="100%"><stop offset="14.444444444444446%" stop-color="#4facf7" stop-opacity="1"></stop><stop offset="85.55555555555554%" stop-color="#4facf7" stop-opacity="1"></stop></linearGradient></defs><defs><linearGradient id="grad1_1" x1="43.8%" y1="0%" x2="100%" y2="100%"><stop offset="14.444444444444446%" stop-color="#4facf7" stop-opacity="1"></stop><stop offset="85.55555555555554%" stop-color="#3982bb" stop-opacity="1"></stop></linearGradient></defs><defs><linearGradient id="grad1_2" x1="43.8%" y1="0%" x2="100%" y2="100%"><stop offset="14.444444444444446%" stop-color="#245983" stop-opacity="1"></stop><stop offset="85.55555555555554%" stop-color="#3982bb" stop-opacity="1"></stop></linearGradient></defs><defs><linearGradient id="grad1_3" x1="43.8%" y1="0%" x2="100%" y2="100%"><stop offset="14.444444444444446%" stop-color="#245983" stop-opacity="1"></stop><stop offset="85.55555555555554%" stop-color="#11344f" stop-opacity="1"></stop></linearGradient></defs><defs><linearGradient id="grad1_4" x1="43.8%" y1="0%" x2="100%" y2="100%"><stop offset="14.444444444444446%" stop-color="#001220" stop-opacity="1"></stop><stop offset="85.55555555555554%" stop-color="#11344f" stop-opacity="1"></stop></linearGradient></defs><defs><linearGradient id="grad2_0" x1="0%" y1="0%" x2="56.3%" y2="100%"><stop offset="14.444444444444446%" stop-color="#4facf7" stop-opacity="1"></stop><stop offset="85.55555555555554%" stop-color="#4facf7" stop-opacity="1"></stop></linearGradient></defs><defs><linearGradient id="grad2_1" x1="0%" y1="0%" x2="56.3%" y2="100%"><stop offset="14.444444444444446%" stop-color="#3982bb" stop-opacity="1"></stop><stop offset="85.55555555555554%" stop-color="#4facf7" stop-opacity="1"></stop></linearGradient></defs><defs><linearGradient id="grad2_2" x1="0%" y1="0%" x2="56.3%" y2="100%"><stop offset="14.444444444444446%" stop-color="#3982bb" stop-opacity="1"></stop><stop offset="85.55555555555554%" stop-color="#245983" stop-opacity="1"></stop></linearGradient></defs><defs><linearGradient id="grad2_3" x1="0%" y1="0%" x2="56.3%" y2="100%"><stop offset="14.444444444444446%" stop-color="#11344f" stop-opacity="1"></stop><stop offset="85.55555555555554%" stop-color="#245983" stop-opacity="1"></stop></linearGradient></defs><defs><linearGradient id="grad2_4" x1="0%" y1="0%" x2="56.3%" y2="100%"><stop offset="14.444444444444446%" stop-color="#11344f" stop-opacity="1"></stop><stop offset="85.55555555555554%" stop-color="#001220" stop-opacity="1"></stop></linearGradient></defs><g transform="translate(960, 0)"><path d="M0 405C-23.1 386.6 -46.3 368.2 -72.8 365.8C-99.3 363.5 -129.1 377.2 -155 374.2C-180.9 371.1 -202.9 351.3 -221.7 331.8C-240.5 312.2 -256.1 292.9 -275.8 275.8C-295.4 258.6 -319 243.5 -331.8 221.7C-344.5 199.8 -346.3 171.3 -352.9 146.2C-359.6 121.1 -371.1 99.5 -380.5 75.7C-390 51.9 -397.5 26 -405 0L0 0Z" fill="#092336"></path><path d="M0 324C-18.5 309.3 -37 294.5 -58.2 292.7C-79.4 290.8 -103.3 301.8 -124 299.3C-144.7 296.9 -162.3 281 -177.3 265.4C-192.4 249.8 -204.9 234.4 -220.6 220.6C-236.3 206.9 -255.2 194.8 -265.4 177.3C-275.6 159.9 -277 137 -282.3 116.9C-287.7 96.9 -296.8 79.6 -304.4 60.6C-312 41.5 -318 20.8 -324 0L0 0Z" fill="#1a4668"></path><path d="M0 243C-13.9 232 -27.8 220.9 -43.7 219.5C-59.6 218.1 -77.5 226.3 -93 224.5C-108.5 222.7 -121.7 210.8 -133 199.1C-144.3 187.3 -153.7 175.8 -165.5 165.5C-177.2 155.2 -191.4 146.1 -199.1 133C-206.7 119.9 -207.8 102.8 -211.8 87.7C-215.7 72.7 -222.6 59.7 -228.3 45.4C-234 31.1 -238.5 15.6 -243 0L0 0Z" fill="#2e6d9f"></path><path d="M0 162C-9.3 154.6 -18.5 147.3 -29.1 146.3C-39.7 145.4 -51.6 150.9 -62 149.7C-72.4 148.4 -81.1 140.5 -88.7 132.7C-96.2 124.9 -102.5 117.2 -110.3 110.3C-118.2 103.4 -127.6 97.4 -132.7 88.7C-137.8 79.9 -138.5 68.5 -141.2 58.5C-143.8 48.4 -148.4 39.8 -152.2 30.3C-156 20.8 -159 10.4 -162 0L0 0Z" fill="#4496d9"></path><path d="M0 81C-4.6 77.3 -9.3 73.6 -14.6 73.2C-19.9 72.7 -25.8 75.4 -31 74.8C-36.2 74.2 -40.6 70.3 -44.3 66.4C-48.1 62.4 -51.2 58.6 -55.2 55.2C-59.1 51.7 -63.8 48.7 -66.4 44.3C-68.9 40 -69.3 34.3 -70.6 29.2C-71.9 24.2 -74.2 19.9 -76.1 15.1C-78 10.4 -79.5 5.2 -81 0L0 0Z" fill="#4facf7"></path></g><g transform="translate(0, 540)"><path d="M0 -405C25.3 -399.1 50.6 -393.3 77.6 -390.4C104.7 -387.4 133.3 -387.4 155 -374.2C176.6 -361 191.2 -334.6 212.8 -318.5C234.3 -302.3 262.8 -296.4 277.2 -277.2C291.5 -258 291.8 -225.5 302.7 -202.2C313.5 -179 335.1 -164.9 352 -145.8C368.9 -126.7 381.3 -102.6 389.4 -77.5C397.4 -52.3 401.2 -26.2 405 0L0 0Z" fill="#092336"></path><path d="M0 -324C20.3 -319.3 40.5 -314.6 62.1 -312.3C83.7 -309.9 106.7 -309.9 124 -299.3C141.3 -288.8 153 -267.7 170.2 -254.8C187.5 -241.8 210.3 -237.1 221.7 -221.7C233.2 -206.4 233.4 -180.4 242.1 -161.8C250.8 -143.2 268 -131.9 281.6 -116.6C295.2 -101.4 305 -82.1 311.5 -62C318 -41.8 321 -20.9 324 0L0 0Z" fill="#1a4668"></path><path d="M0 -243C15.2 -239.5 30.4 -236 46.6 -234.2C62.8 -232.4 80 -232.4 93 -224.5C106 -216.6 114.7 -200.8 127.7 -191.1C140.6 -181.4 157.7 -177.8 166.3 -166.3C174.9 -154.8 175.1 -135.3 181.6 -121.3C188.1 -107.4 201 -98.9 211.2 -87.5C221.4 -76 228.8 -61.6 233.6 -46.5C238.5 -31.4 240.7 -15.7 243 0L0 0Z" fill="#2e6d9f"></path><path d="M0 -162C10.1 -159.7 20.3 -157.3 31.1 -156.1C41.9 -155 53.3 -154.9 62 -149.7C70.7 -144.4 76.5 -133.8 85.1 -127.4C93.7 -120.9 105.1 -118.6 110.9 -110.9C116.6 -103.2 116.7 -90.2 121.1 -80.9C125.4 -71.6 134 -66 140.8 -58.3C147.6 -50.7 152.5 -41 155.7 -31C159 -20.9 160.5 -10.5 162 0L0 0Z" fill="#4496d9"></path><path d="M0 -81C5.1 -79.8 10.1 -78.7 15.5 -78.1C20.9 -77.5 26.7 -77.5 31 -74.8C35.3 -72.2 38.2 -66.9 42.6 -63.7C46.9 -60.5 52.6 -59.3 55.4 -55.4C58.3 -51.6 58.4 -45.1 60.5 -40.4C62.7 -35.8 67 -33 70.4 -29.2C73.8 -25.3 76.3 -20.5 77.9 -15.5C79.5 -10.5 80.2 -5.2 81 0L0 0Z" fill="#4facf7"></path></g></svg>